/* XPM */
static char * qtdbf_xpm[] = {
"32 32 264 2",
"  	c None",
". 	c #0C3B9C",
"+ 	c #023498",
"@ 	c #103F9E",
"# 	c #0A3A9B",
"$ 	c #013397",
"% 	c #0F3E9D",
"& 	c #002E94",
"* 	c #002F95",
"= 	c #003095",
"- 	c #002F94",
"; 	c #003296",
"> 	c #013296",
", 	c #002C93",
"' 	c #BCC9E4",
") 	c #AEBEDE",
"! 	c #A8B9DC",
"~ 	c #A5B4D9",
"{ 	c #A1B0D7",
"] 	c #A0AFD7",
"^ 	c #A3B2D8",
"/ 	c #A5B5D9",
"( 	c #A8B9DB",
"_ 	c #ACBCDD",
": 	c #B0C0DE",
"< 	c #B4C3E0",
"[ 	c #B5C3E0",
"} 	c #ABBBDC",
"| 	c #99ABD4",
"1 	c #728DC5",
"2 	c #3D60AE",
"3 	c #002D94",
"4 	c #003195",
"5 	c #97ABD4",
"6 	c #B1C0DF",
"7 	c #FFFFFF",
"8 	c #FEFFFF",
"9 	c #91A5D2",
"0 	c #013297",
"a 	c #003196",
"b 	c #002D93",
"c 	c #8A9FCE",
"d 	c #FBFCFD",
"e 	c #00208E",
"f 	c #002490",
"g 	c #00248F",
"h 	c #1D47A1",
"i 	c #5171B7",
"j 	c #A0B1D7",
"k 	c #F0F3F9",
"l 	c #1A47A1",
"m 	c #6985C1",
"n 	c #043397",
"o 	c #9FB1D7",
"p 	c #FEFEFE",
"q 	c #F5F7FA",
"r 	c #08399A",
"s 	c #6380BE",
"t 	c #839BCC",
"u 	c #AEBDDD",
"v 	c #002992",
"w 	c #D7DEEE",
"x 	c #17439F",
"y 	c #5171B6",
"z 	c #7A92C7",
"A 	c #BECAE4",
"B 	c #DBE2F0",
"C 	c #ECF0F7",
"D 	c #002590",
"E 	c #B7C3E0",
"F 	c #FAFBFD",
"G 	c #002B93",
"H 	c #A3B3D9",
"I 	c #FDFDFE",
"J 	c #2752A7",
"K 	c #1E4BA3",
"L 	c #6F8BC4",
"M 	c #F1F4F9",
"N 	c #EEF2F8",
"O 	c #EDF1F8",
"P 	c #E9EEF6",
"Q 	c #073498",
"R 	c #14419E",
"S 	c #15439F",
"T 	c #15449F",
"U 	c #1644A1",
"V 	c #1744A2",
"W 	c #1946A1",
"X 	c #1A47A2",
"Y 	c #1845A1",
"Z 	c #95AAD4",
"` 	c #E2E8F3",
" .	c #E1E7F3",
"..	c #DCE3F1",
"+.	c #1845A0",
"@.	c #2B54A8",
"#.	c #9BAED6",
"$.	c #002292",
"%.	c #002593",
"&.	c #002894",
"*.	c #5474B9",
"=.	c #002895",
"-.	c #0B399C",
";.	c #E5EBF4",
">.	c #E4EAF3",
",.	c #8FA5D2",
"'.	c #003099",
").	c #02339B",
"!.	c #04349B",
"~.	c #F4F7FA",
"{.	c #EBEFF6",
"].	c #3B61B1",
"^.	c #4267B3",
"/.	c #EAEFF6",
"(.	c #D8DFEF",
"_.	c #D6DEEE",
":.	c #859DCE",
"<.	c #00309A",
"[.	c #E6EBF4",
"}.	c #E3E8F3",
"|.	c #103EA0",
"1.	c #00319A",
"2.	c #7892C9",
"3.	c #C7D3E8",
"4.	c #C4D1E7",
"5.	c #C4D0E7",
"6.	c #7C96CA",
"7.	c #D2DCED",
"8.	c #BCCAE3",
"9.	c #002B97",
"0.	c #002B96",
"a.	c #B9C7E2",
"b.	c #B8C6E2",
"c.	c #B6C4E1",
"d.	c #B5C4E1",
"e.	c #728EC7",
"f.	c #04349A",
"g.	c #C2CEE6",
"h.	c #6D8AC4",
"i.	c #375EAF",
"j.	c #BBC8E3",
"k.	c #A4B6D9",
"l.	c #A1B4D9",
"m.	c #AFBFDE",
"n.	c #6886C2",
"o.	c #04359B",
"p.	c #B0C0DF",
"q.	c #AABBDC",
"r.	c #113FA0",
"s.	c #002F98",
"t.	c #98ACD5",
"u.	c #99AED6",
"v.	c #E6ECF5",
"w.	c #CDD7EB",
"x.	c #D8E0EF",
"y.	c #95ABD4",
"z.	c #607FBF",
"A.	c #03349A",
"B.	c #A0B4D8",
"C.	c #96ABD4",
"D.	c #466BB5",
"E.	c #002F99",
"F.	c #607FBE",
"G.	c #96ACD4",
"H.	c #879FCE",
"I.	c #EDF1F7",
"J.	c #D0DAEC",
"K.	c #849DCC",
"L.	c #7F99CA",
"M.	c #E6EBF5",
"N.	c #F6F8FB",
"O.	c #8099CB",
"P.	c #869ECD",
"Q.	c #5678BB",
"R.	c #90A6D1",
"S.	c #869FCD",
"T.	c #879FCD",
"U.	c #8CA3D0",
"V.	c #4266B3",
"W.	c #4469B3",
"X.	c #8AA2CF",
"Y.	c #8098CB",
"Z.	c #7791C7",
"`.	c #708CC4",
" +	c #476AB4",
".+	c #01329A",
"++	c #889ECD",
"@+	c #7C95C9",
"#+	c #7D96C9",
"$+	c #718CC4",
"%+	c #4B6EB6",
"&+	c #0F3D9F",
"*+	c #003199",
"=+	c #4C6FB7",
"-+	c #7B94C8",
";+	c #7892C7",
">+	c #BECBE4",
",+	c #6684C0",
"'+	c #6280BE",
")+	c #DDE4F1",
"!+	c #EDF0F7",
"~+	c #6885C1",
"{+	c #1542A1",
"]+	c #02329A",
"^+	c #0B3B9E",
"/+	c #1543A1",
"(+	c #103F9F",
"_+	c #224DA6",
":+	c #6080BF",
"<+	c #5777BA",
"[+	c #F7F9FC",
"}+	c #FCFDFD",
"|+	c #859DCD",
"1+	c #EBEFF7",
"2+	c #5174B8",
"3+	c #02339A",
"4+	c #00329A",
"5+	c #003299",
"6+	c #01329B",
"7+	c #1643A2",
"8+	c #3058AB",
"9+	c #5475B9",
"0+	c #5B7BBB",
"a+	c #5979BA",
"b+	c #5979BB",
"c+	c #4F71B6",
"d+	c #F3F6FA",
"e+	c #94A9D4",
"f+	c #D4DCED",
"g+	c #3F64B0",
"h+	c #476BB4",
"i+	c #4A6DB4",
"j+	c #4B6EB5",
"k+	c #4C6FB6",
"l+	c #4D70B6",
"m+	c #486BB4",
"n+	c #4A6DB5",
"o+	c #496BB4",
"p+	c #4065B1",
"q+	c #3960AF",
"r+	c #345CAC",
"s+	c #385FAE",
"t+	c #2F58AA",
"u+	c #D5DDEE",
"v+	c #EAEEF6",
"w+	c #3059AA",
"x+	c #2852A7",
"y+	c #204CA4",
"z+	c #D1DAEC",
"A+	c #1D49A2",
"B+	c #204CA3",
"C+	c #1745A0",
"D+	c #14429F",
"E+	c #6281BE",
"F+	c #F2F4F9",
"G+	c #5576B9",
"H+	c #13429E",
"I+	c #1341A0",
"J+	c #09399B",
"K+	c #2C55A9",
"L+	c #244FA6",
"M+	c #224DA5",
"N+	c #2A54A9",
"O+	c #08399B",
". + + + + + + + + + + + + + + + + + + + + + + + + + + + + + + @ ",
"# $ $ $ $ $ $ $ $ $ $ $ $ $ $ $ $ $ $ $ $ $ $ $ $ $ $ $ $ $ $ % ",
"# $ $ $ $ $ $ $ $ $ $ $ $ $ $ $ $ $ $ $ $ $ $ $ $ $ $ $ $ $ $ % ",
"# $ $ $ $ $ $ & & * * = = = * * - & & & * = ; $ > $ $ $ $ $ $ % ",
"# $ $ $ $ $ , ' ) ! ~ { ] ^ / ( _ : < [ } | 1 2 3 4 $ $ $ $ $ % ",
"# $ $ $ $ $ 3 5 6 7 7 7 7 7 7 7 7 7 7 7 7 7 7 7 8 9 0 $ $ $ $ % ",
"# $ $ $ $ $ $ a b c 7 7 7 d e f g 3 h i j 7 7 7 7 7 k l $ $ $ % ",
"# $ $ $ $ $ $ $ $ m 7 7 7 d f $ $ $ > $ * n o 7 7 7 p q r $ $ % ",
"# $ $ $ $ $ $ $ $ s 7 7 7 d f $ $ $ $ $ $ $ , t 7 7 7 p u 3 $ % ",
"# $ $ $ $ $ $ $ $ s 7 7 7 d f $ $ $ $ $ $ $ $ v w p 7 7 7 x $ % ",
"# $ $ $ $ $ $ $ $ s 7 7 7 d f $ $ $ $ $ $ $ $ $ y 7 7 7 7 z ; % ",
"# $ $ $ $ $ $ $ $ s 7 7 7 d f $ $ $ $ $ $ $ $ > & 7 7 7 p A , % ",
"# $ $ $ $ $ $ $ $ s 7 7 7 d f $ $ $ $ $ $ $ $ $ v B 7 7 7 C D % ",
"# $ $ $ $ $ $ $ $ s 7 7 7 d f $ $ $ $ $ $ $ $ $ & E 7 7 7 F G % ",
"# $ $ $ $ $ $ $ $ s 7 7 7 d f $ $ $ $ $ $ $ $ $ = H 7 7 7 I & % ",
"J K K K K K K K K L M N O P Q R S T T U V W X X Y Z `  . ...+.@.",
"7 7 7 7 7 7 7 7 7 #.$.%.%.&.7 7 7 7 7 7 7 7 7 7 7 *.=.=.=.-.7 7 ",
";.>.>.>.>.>.>.>.>.,.'.).).!.~.>.>.>.>.>.>.>.>.>.{.].).).).^./.>.",
"(._._._._._._._._.:.<.).).!.[._._._._._._._._._.}.|.).).1.2.w _.",
"3.4.4.4.4.4.4.4.5.6.<.).).!.7.4.4.4.4.4.4.4.4.4.8.9.).).0.a.5.4.",
"b.c.c.c.c.c.c.c.d.e.1.).).f.g.c.c.c.c.c.c.c.c.c.h.1.).).i.j.c.c.",
"( k.l.< g.( m.k.k.n.1.).).o.p.k.k.k.k.k.k.k.k.q.r.).).s.t.k.k.k.",
"u.u.v.w.x.7 7 ,.y.z.1.).).A.B.C.C.C.C.C.C.C.u.D.1.).E.F.G.C.C.C.",
"H.I.J.K.L.M.N.O.P.Q.1.).).A.R.H.H.H.H.S.T.U.V.E.).E.W.X.H.H.H.H.",
"Y.7 d.Z.1 ` k `.Z. +.+).).A.++@+@+#+#+$+%+&+1.).*+=+-+;+;+;+;+;+",
";+7 >+,+'+)+!+F.~+{+).).).]+^+/+/+(+o.s.1..+E._+:+~+~+~+~+~+~+~+",
"<+[+}+#+|+F 1+2+3+4+5+5+6+4+5+5+1.1.5+!.7+8+9+0+a+b+b+b+b+b+b+b+",
"c+1 d+7 e+f+P g+h+i+j+k+c+l+j+j+m+h+n+c+j+o+o+o+o+o+o+o+o+o+o+o+",
"p+q+r+s+t+u+v+t+q+q+q+q+q+q+q+q+q+q+q+q+q+q+q+q+q+q+q+q+q+q+q+q+",
"w+x+x+x+y+z+{.A+x+x+x+x+x+x+x+x+x+x+x+x+x+x+x+x+x+x+x+x+x+x+x+x+",
"B+C+C+D+E+F+7 G+H+C+C+C+C+C+C+C+C+C+C+C+C+C+C+C+C+C+C+C+C+C+C+C+",
"I+# # J+K+L+M+N+O+# # # # # # # # # # # # # # # # # # # # # # # "};
