<?xml version="1.0" encoding="utf-8"?>
<!DOCTYPE svg PUBLIC "-//W3C//DTD SVG 1.1//EN" "http://www.w3.org/Graphics/SVG/1.1/DTD/svg11.dtd" [
	<!ENTITY ns_svg "http://www.w3.org/2000/svg">
	<!ENTITY ns_xlink "http://www.w3.org/1999/xlink">
]>
<svg  version="1.1" xmlns="&ns_svg;" xmlns:xlink="&ns_xlink;" width="128" height="128" viewBox="0 0 128 128"
	 overflow="visible" enable-background="new 0 0 128 128" xml:space="preserve">
	<path opacity="0.2" enable-background="new    " d="M54.899,37c-2.206,0-4,1.794-4,4v46c0,2.206,1.794,4,4,4h18.005
		c2.205,0,4-1.794,4-4V41c0-2.206-1.795-4-4-4H54.899z"/>
	<path opacity="0.2" enable-background="new    " d="M1.899,64c0,34.188,27.813,62,62.002,62c34.19,0,62.003-27.813,62.003-62
		c0-34.187-27.813-62-62.003-62C29.712,2,1.899,29.813,1.899,64z M22.899,64c0-22.607,18.393-41,41.002-41
		c22.61,0,41.003,18.393,41.003,41c0,22.607-18.393,41-41.003,41C41.292,105,22.899,86.607,22.899,64z"/>
	<path opacity="0.2" enable-background="new    " d="M2.899,64c0,33.636,27.364,61,61.002,61c33.64,0,61.003-27.364,61.003-61
		S97.541,3,63.901,3C30.263,3,2.899,30.364,2.899,64z M21.899,64c0-23.159,18.841-42,42.002-42c23.161,0,42.003,18.841,42.003,42
		s-18.842,42-42.003,42C40.74,106,21.899,87.159,21.899,64z"/>
	
		<linearGradient id="XMLID_21_" gradientUnits="userSpaceOnUse" x1="59.0332" y1="118.9277" x2="72.2831" y2="-3.8219" gradientTransform="matrix(1 0 0 -1 -0.9624 127.9346)">
		<stop  offset="0" style="stop-color:#A70000"/>
		<stop  offset="1" style="stop-color:#A70000"/>
	</linearGradient>
	<path fill="url(#XMLID_21_)" d="M2.899,63c0,33.636,27.364,61,61.002,61c33.64,0,61.003-27.364,61.003-61S97.541,2,63.901,2
		C30.263,2,2.899,29.364,2.899,63z M21.899,63c0-23.159,18.841-42,42.002-42c23.161,0,42.003,18.841,42.003,42s-18.842,42-42.003,42
		C40.74,105,21.899,86.159,21.899,63z"/>
	
		<linearGradient id="XMLID_22_" gradientUnits="userSpaceOnUse" x1="57.627" y1="126.2451" x2="72.377" y2="1.2451" gradientTransform="matrix(1 0 0 -1 -0.9624 127.9346)">
		<stop  offset="0" style="stop-color:#BD0000"/>
		<stop  offset="0.2809" style="stop-color:#C40000"/>
		<stop  offset="0.6931" style="stop-color:#D80000"/>
		<stop  offset="1" style="stop-color:#EB0000"/>
	</linearGradient>
	<path fill="url(#XMLID_22_)" d="M63.901,3C30.762,3,3.899,29.863,3.899,63c0,33.137,26.863,60,60.002,60s60.003-26.863,60.003-60
		C123.904,29.863,97.041,3,63.901,3z M63.901,106c-23.712,0-43.002-19.29-43.002-43s19.29-43,43.002-43
		c23.714,0,43.003,19.29,43.003,43S87.615,106,63.901,106z"/>
	
		<linearGradient id="XMLID_23_" gradientUnits="userSpaceOnUse" x1="63.6812" y1="73.3545" x2="71.9812" y2="3.0147" gradientTransform="matrix(1 0 0 -1 -0.9624 127.9346)">
		<stop  offset="0" style="stop-color:#BD0000"/>
		<stop  offset="0.0432" style="stop-color:#C10606"/>
		<stop  offset="0.2944" style="stop-color:#D62424"/>
		<stop  offset="0.5413" style="stop-color:#E63A3A"/>
		<stop  offset="0.7796" style="stop-color:#EF4747"/>
		<stop  offset="1" style="stop-color:#F24B4B"/>
	</linearGradient>
	<path fill="url(#XMLID_23_)" d="M63.901,122C30.929,122,4.182,95.406,3.912,62.5C3.91,62.668,3.899,62.832,3.899,63
		c0,33.137,26.863,60,60.002,60s60.003-26.863,60.003-60c0-0.168-0.012-0.332-0.014-0.5C123.621,95.406,96.875,122,63.901,122z"/>
	
		<linearGradient id="XMLID_24_" gradientUnits="userSpaceOnUse" x1="23.2363" y1="113.3691" x2="71.4862" y2="60.1193" gradientTransform="matrix(1 0 0 -1 -0.9624 127.9346)">
		<stop  offset="0" style="stop-color:#E05E5E"/>
		<stop  offset="1" style="stop-color:#D81818"/>
	</linearGradient>
	<path fill="url(#XMLID_24_)" d="M20.899,63.001C20.899,39.252,40.15,20,63.901,20c18.834,0,34.825,12.109,40.647,28.963
		c10.517,0.386,18.004,1.311,18.004,1.311C116.715,23.25,92.676,3,63.901,3C30.762,3,3.899,29.863,3.899,63
		c0,8.284,1.679,16.176,4.715,23.354c0,0,5.388-5.552,13.736-12.263C21.408,70.553,20.899,66.837,20.899,63.001z"/>
	
		<linearGradient id="XMLID_25_" gradientUnits="userSpaceOnUse" x1="-537.6123" y1="1160.6963" x2="-662.8623" y2="1160.6963" gradientTransform="matrix(-1 0 0 1 -535.9629 -1127.3447)">
		<stop  offset="0" style="stop-color:#E57373"/>
		<stop  offset="0.118" style="stop-color:#EC9393"/>
		<stop  offset="0.2664" style="stop-color:#F4B4B4"/>
		<stop  offset="0.3897" style="stop-color:#F9C9C9"/>
		<stop  offset="0.4719" style="stop-color:#FBD0D0"/>
		<stop  offset="0.5484" style="stop-color:#F9C8C8"/>
		<stop  offset="0.6698" style="stop-color:#F5B1B1"/>
		<stop  offset="0.8208" style="stop-color:#ED8B8B"/>
		<stop  offset="0.9942" style="stop-color:#E35858"/>
		<stop  offset="1" style="stop-color:#E35656"/>
	</linearGradient>
	<path fill="url(#XMLID_25_)" d="M63.901,4.101c32.974,0,59.72,26.595,59.989,59.5c0.002-0.167,0.014-0.333,0.014-0.5
		c0-33.138-26.863-60-60.003-60s-60.002,26.862-60.002,60c0,0.167,0.011,0.333,0.013,0.5C4.182,30.695,30.929,4.101,63.901,4.101z"
		/>
	<path opacity="0.2" enable-background="new    " d="M54.899,38c-1.654,0-3,1.346-3,3v46c0,1.654,1.346,3,3,3h18.005
		c1.654,0,3-1.346,3-3V41c0-1.654-1.346-3-3-3H54.899z"/>
	
		<linearGradient id="XMLID_26_" gradientUnits="userSpaceOnUse" x1="65.7637" y1="36.9482" x2="63.7637" y2="99.4475" gradientTransform="matrix(1 0 0 -1 -0.9624 127.9346)">
		<stop  offset="0" style="stop-color:#A70000"/>
		<stop  offset="1" style="stop-color:#A70000"/>
	</linearGradient>
	<path fill="url(#XMLID_26_)" d="M54.899,37c-1.654,0-3,1.346-3,3v46c0,1.654,1.346,3,3,3h18.005c1.654,0,3-1.346,3-3V40
		c0-1.654-1.346-3-3-3H54.899z"/>
	
		<linearGradient id="XMLID_27_" gradientUnits="userSpaceOnUse" x1="64.0288" y1="88.8818" x2="66.0288" y2="31.5468" gradientTransform="matrix(1 0 0 -1 -0.9624 127.9346)">
		<stop  offset="0" style="stop-color:#BD0000"/>
		<stop  offset="0.3522" style="stop-color:#C40000"/>
		<stop  offset="0.8691" style="stop-color:#D80000"/>
		<stop  offset="1" style="stop-color:#DE0000"/>
	</linearGradient>
	<path fill="url(#XMLID_27_)" d="M74.904,86c0,1.1-0.9,2-2,2H54.899c-1.1,0-2-0.9-2-2V40c0-1.1,0.9-2,2-2h18.005c1.1,0,2,0.9,2,2V86
		z"/>
	
		<linearGradient id="XMLID_28_" gradientUnits="userSpaceOnUse" x1="64.8359" y1="43.2197" x2="64.982" y2="39.0313" gradientTransform="matrix(1 0 0 -1 -0.9624 127.9346)">
		<stop  offset="0" style="stop-color:#BD0000"/>
		<stop  offset="0.0432" style="stop-color:#C10606"/>
		<stop  offset="0.2944" style="stop-color:#D62424"/>
		<stop  offset="0.5413" style="stop-color:#E63A3A"/>
		<stop  offset="0.7796" style="stop-color:#EF4747"/>
		<stop  offset="1" style="stop-color:#F24B4B"/>
	</linearGradient>
	<path fill="url(#XMLID_28_)" d="M72.904,87H54.899c-1.1,0-2-0.9-2-2v1c0,1.1,0.9,2,2,2h18.005c1.1,0,2-0.9,2-2v-1
		C74.904,86.1,74.004,87,72.904,87z"/>
	
		<linearGradient id="XMLID_29_" gradientUnits="userSpaceOnUse" x1="18.1382" y1="81.0391" x2="121.1358" y2="81.7891" gradientTransform="matrix(1 0 0 -1 -0.9624 127.9346)">
		<stop  offset="0" style="stop-color:#E05E5E"/>
		<stop  offset="1" style="stop-color:#D81818"/>
	</linearGradient>
	<path fill="url(#XMLID_29_)" d="M72.904,38H54.899c-1.1,0-2,0.9-2,2v15.257c1.349-0.55,2.705-1.067,4.067-1.53
		c5.427-1.845,11.604-3.05,17.938-3.807V40C74.904,38.9,74.004,38,72.904,38z"/>
	
		<linearGradient id="XMLID_30_" gradientUnits="userSpaceOnUse" x1="53.8936" y1="88.8115" x2="86.9772" y2="87.5614" gradientTransform="matrix(1 0 0 -1 -0.9624 127.9346)">
		<stop  offset="0" style="stop-color:#E07474"/>
		<stop  offset="1" style="stop-color:#D82525"/>
	</linearGradient>
	<path fill="url(#XMLID_30_)" d="M54.899,39h18.005c1.1,0,2,0.9,2,2v-1c0-1.1-0.9-2-2-2H54.899c-1.1,0-2,0.9-2,2v1
		C52.899,39.9,53.799,39,54.899,39z"/>
</svg>
